<svg width="960" height="104" viewBox="0 0 960 104" fill="none" xmlns="http://www.w3.org/2000/svg">
<path fill-rule="evenodd" clip-rule="evenodd" d="M959.5 7.5C959.5 39.5 959.5 71.5 959.5 103.5C639.5 103.5 319.5 103.5 -0.5 103.5C-0.5 70.17 -0.5 36.83 -0.5 3.5C40.3821 6.2 81.2154 9.53 122 13.5C172.478 8.92 222.978 4.59 273.5 0.5C323.831 4.88 374.165 9.21 424.5 13.5C474.314 8.97 524.147 4.64 574 0.5C624.868 4.48 675.701 8.81 726.5 13.5C776.807 8.89 827.14 4.56 877.5 0.5C904.866 2.64 932.199 4.98 959.5 7.5Z" fill="#E6F4E5"/>
</svg>
