<svg width="960" height="86" viewBox="0 0 960 86" fill="none" xmlns="http://www.w3.org/2000/svg">
<path fill-rule="evenodd" clip-rule="evenodd" d="M959.5 7.5C959.5 31.5 959.5 55.5 959.5 79.5C932.199 76.98 904.866 74.64 877.5 72.5C827.14 76.56 776.807 80.89 726.5 85.5C675.701 80.81 624.868 76.48 574 72.5C524.147 76.64 474.314 80.97 424.5 85.5C374.165 81.21 323.831 76.88 273.5 72.5C222.978 76.59 172.478 80.92 122 85.5C81.2154 81.53 40.3821 78.2 -0.5 75.5C-0.5 50.83 -0.5 26.17 -0.5 1.5C56.4637 4.673 113.464 7.34 170.5 9.5C239.333 6.483 308.166 3.483 377 0.5C445.837 3.421 514.67 6.421 583.5 9.5C652.333 6.483 721.166 3.483 790 0.5C846.496 2.983 902.996 5.317 959.5 7.5Z" fill="#EBFBE9"/>
</svg>
