<svg width="68" height="27" viewBox="0 0 68 27" fill="none" xmlns="http://www.w3.org/2000/svg">
<path fill-rule="evenodd" clip-rule="evenodd" d="M4.5 0.500019C21.837 0.333019 39.17 0.500019 56.5 1.00002C57.833 2.66702 57.833 4.33302 56.5 6.00002C52.179 6.49902 47.846 6.66602 43.5 6.50002C43.5 7.50002 43.5 8.50002 43.5 9.50002C50.841 9.33402 58.174 9.50002 65.5 10C67.602 11.733 67.935 13.733 66.5 16C63.183 16.498 59.85 16.665 56.5 16.5C56.167 19.5 57.5 20.833 60.5 20.5C60.739 22.467 60.406 24.301 59.5 26C43.5 26.667 27.5 26.667 11.5 26C10.065 23.733 10.398 21.733 12.5 20C16.486 19.501 20.486 19.334 24.5 19.5C24.5 18.5 24.5 17.5 24.5 16.5C16.826 16.666 9.159 16.5 1.5 16C0.0649991 13.733 0.397999 11.733 2.5 10C5.482 9.50202 8.482 9.33502 11.5 9.50002C11.5 8.50002 11.5 7.50002 11.5 6.50002C9.08 6.70802 6.747 6.37402 4.5 5.50002C3.334 3.83302 3.334 2.16602 4.5 0.500019Z" fill="#EBF5FC"/>
</svg>
