<svg width="960" height="913" viewBox="0 0 960 913" fill="none" xmlns="http://www.w3.org/2000/svg">
<path fill-rule="evenodd" clip-rule="evenodd" d="M-0.5 0.5C244.5 0.5 489.5 0.5 734.5 0.5C731.939 2.6774 731.939 4.8441 734.5 7C739.155 7.4992 743.821 7.6658 748.5 7.5C748.5 8.5 748.5 9.5 748.5 10.5C740.493 10.3336 732.493 10.5003 724.5 11C721.833 13.3333 721.833 15.6667 724.5 18C727.817 18.4983 731.15 18.665 734.5 18.5C734.5 19.5 734.5 20.5 734.5 21.5C730.024 21.8 728.69 23.967 730.5 28C742.847 28.833 755.18 28.666 767.5 27.5C768.953 25.356 768.62 23.523 766.5 22C761.845 21.501 757.179 21.334 752.5 21.5C752.5 20.5 752.5 19.5 752.5 18.5C760.889 18.8032 769.222 18.4699 777.5 17.5C780.191 15.0018 779.858 12.8351 776.5 11C773.118 10.8236 769.785 10.3236 766.5 9.5C769.245 8.1105 772.079 6.7771 775 5.5C775.64 3.735 775.473 2.0683 774.5 0.5C836.167 0.5 897.833 0.5 959.5 0.5C959.5 303.833 959.5 607.167 959.5 910.5C902.996 908.317 846.496 905.983 790 903.5C721.166 906.483 652.333 909.483 583.5 912.5C514.67 909.421 445.837 906.421 377 903.5C308.166 906.483 239.333 909.483 170.5 912.5C113.464 910.34 56.4637 907.673 -0.5 904.5C-0.5 603.167 -0.5 301.833 -0.5 0.5Z" fill="#DBF0FB"/>
</svg>
